<svg preserveAspectRatio="none" width="100%" height="100%" overflow="visible" style="display: block;" viewBox="0 0 14 14" fill="none" xmlns="http://www.w3.org/2000/svg">
<g id="Q_Close">
<mask id="path-1-outside-1_0_341" maskUnits="userSpaceOnUse" x="-0.5" y="-0.5" width="15" height="15" fill="black">
<rect fill="white" x="-0.5" y="-0.5" width="15" height="15"/>
<path d="M12.5 13.5H11.5V12.5H10.5V11.5H9.5V10.5H8.5V9.5H7.5V8.5H5.5V9.5H4.5V10.5H3.5V11.5H2.5V12.5H1.5V13.5H0.5V11.5H1.5V10.5H2.5V9.5H3.5V8.5H4.5V7.5H5.5V6.5H4.5V5.5H3.5V4.5H2.5V3.5H1.5V2.5H0.5V0.5H2.5V1.5H3.5V2.5H4.5V3.5H5.5V4.5H6.5V5.5H7.5V4.5H8.5V3.5H9.5V2.5H10.5V1.5H11.5V0.5H13.5V1.5H12.5V2.5H11.5V3.5H10.5V4.5H9.5V5.5H8.5V7.5H9.5V8.5H10.5V9.5H11.5V10.5H12.5V11.5H13.5V12.5H12.5V13.5Z"/>
</mask>
<path d="M12.5 13.5H11.5V12.5H10.5V11.5H9.5V10.5H8.5V9.5H7.5V8.5H5.5V9.5H4.5V10.5H3.5V11.5H2.5V12.5H1.5V13.5H0.5V11.5H1.5V10.5H2.5V9.5H3.5V8.5H4.5V7.5H5.5V6.5H4.5V5.5H3.5V4.5H2.5V3.5H1.5V2.5H0.5V0.5H2.5V1.5H3.5V2.5H4.5V3.5H5.5V4.5H6.5V5.5H7.5V4.5H8.5V3.5H9.5V2.5H10.5V1.5H11.5V0.5H13.5V1.5H12.5V2.5H11.5V3.5H10.5V4.5H9.5V5.5H8.5V7.5H9.5V8.5H10.5V9.5H11.5V10.5H12.5V11.5H13.5V12.5H12.5V13.5Z" fill="var(--fill-0, white)"/>
<path d="M12.5 13.5V14H13V13.5H12.5ZM11.5 13.5H11V14H11.5V13.5ZM11.5 12.5H12V12H11.5V12.5ZM10.5 12.5H10V13H10.5V12.5ZM10.5 11.5H11V11H10.5V11.5ZM9.5 11.5H9V12H9.5V11.5ZM9.5 10.5H10V10H9.5V10.5ZM8.5 10.5H8V11H8.5V10.5ZM8.5 9.5H9V9H8.5V9.5ZM7.5 9.5H7V10H7.5V9.5ZM7.5 8.5H8V8H7.5V8.5ZM5.5 8.5V8H5V8.5H5.5ZM5.5 9.5V10H6V9.5H5.5ZM4.5 9.5V9H4V9.5H4.5ZM4.5 10.5V11H5V10.5H4.5ZM3.5 10.5V10H3V10.5H3.5ZM3.5 11.5V12H4V11.5H3.5ZM2.5 11.5V11H2V11.5H2.5ZM2.5 12.5V13H3V12.5H2.5ZM1.5 12.5V12H1V12.5H1.5ZM1.5 13.5V14H2V13.5H1.5ZM0.5 13.5H0V14H0.5V13.5ZM0.5 11.5V11H0V11.5H0.5ZM1.5 11.5V12H2V11.5H1.5ZM1.5 10.5V10H1V10.5H1.5ZM2.5 10.5V11H3V10.5H2.5ZM2.5 9.5V9H2V9.5H2.5ZM3.5 9.5V10H4V9.5H3.5ZM3.5 8.5V8H3V8.5H3.5ZM4.5 8.5V9H5V8.5H4.5ZM4.5 7.5V7H4V7.5H4.5ZM5.5 7.5V8H6V7.5H5.5ZM5.5 6.5H6V6H5.5V6.5ZM4.5 6.5H4V7H4.5V6.5ZM4.5 5.5H5V5H4.5V5.5ZM3.5 5.5H3V6H3.5V5.5ZM3.5 4.5H4V4H3.5V4.5ZM2.5 4.5H2V5H2.5V4.5ZM2.5 3.5H3V3H2.5V3.5ZM1.5 3.5H1V4H1.5V3.5ZM1.5 2.5H2V2H1.5V2.5ZM0.5 2.5H0V3H0.5V2.5ZM0.5 0.5V0H0V0.5H0.5ZM2.5 0.5H3V0H2.5V0.5ZM2.5 1.5H2V2H2.5V1.5ZM3.5 1.5H4V1H3.5V1.5ZM3.5 2.5H3V3H3.5V2.5ZM4.5 2.5H5V2H4.5V2.5ZM4.5 3.5H4V4H4.5V3.5ZM5.5 3.5H6V3H5.5V3.5ZM5.5 4.5H5V5H5.5V4.5ZM6.5 4.5H7V4H6.5V4.5ZM6.5 5.5H6V6H6.5V5.5ZM7.5 5.5V6H8V5.5H7.5ZM7.5 4.5V4H7V4.5H7.5ZM8.5 4.5V5H9V4.5H8.5ZM8.5 3.5V3H8V3.5H8.5ZM9.5 3.5V4H10V3.5H9.5ZM9.5 2.5V2H9V2.5H9.5ZM10.5 2.5V3H11V2.5H10.5ZM10.5 1.5V1H10V1.5H10.5ZM11.5 1.5V2H12V1.5H11.5ZM11.5 0.5V0H11V0.5H11.5ZM13.5 0.5H14V0H13.5V0.5ZM13.5 1.5V2H14V1.5H13.5ZM12.5 1.5V1H12V1.5H12.5ZM12.5 2.5V3H13V2.5H12.5ZM11.5 2.5V2H11V2.5H11.5ZM11.5 3.5V4H12V3.5H11.5ZM10.5 3.5V3H10V3.5H10.5ZM10.5 4.5V5H11V4.5H10.5ZM9.5 4.5V4H9V4.5H9.5ZM9.5 5.5V6H10V5.5H9.5ZM8.5 5.5V5H8V5.5H8.5ZM8.5 7.5H8V8H8.5V7.5ZM9.5 7.5H10V7H9.5V7.5ZM9.5 8.5H9V9H9.5V8.5ZM10.5 8.5H11V8H10.5V8.5ZM10.5 9.5H10V10H10.5V9.5ZM11.5 9.5H12V9H11.5V9.5ZM11.5 10.5H11V11H11.5V10.5ZM12.5 10.5H13V10H12.5V10.5ZM12.5 11.5H12V12H12.5V11.5ZM13.5 11.5H14V11H13.5V11.5ZM13.5 12.5V13H14V12.5H13.5ZM12.5 12.5V12H12V12.5H12.5ZM12.5 13.5V13H11.5V13.5V14H12.5V13.5ZM11.5 13.5H12V12.5H11.5H11V13.5H11.5ZM11.5 12.5V12H10.5V12.5V13H11.5V12.5ZM10.5 12.5H11V11.5H10.5H10V12.5H10.5ZM10.5 11.5V11H9.5V11.5V12H10.5V11.5ZM9.5 11.5H10V10.5H9.5H9V11.5H9.5ZM9.5 10.5V10H8.5V10.5V11H9.5V10.5ZM8.5 10.5H9V9.5H8.5H8V10.5H8.5ZM8.5 9.5V9H7.5V9.5V10H8.5V9.5ZM7.5 9.5H8V8.5H7.5H7V9.5H7.5ZM7.5 8.5V8H5.5V8.5V9H7.5V8.5ZM5.5 8.5H5V9.5H5.5H6V8.5H5.5ZM5.5 9.5V9H4.5V9.5V10H5.5V9.5ZM4.5 9.5H4V10.5H4.5H5V9.5H4.5ZM4.5 10.5V10H3.5V10.5V11H4.5V10.5ZM3.5 10.5H3V11.5H3.5H4V10.5H3.5ZM3.5 11.5V11H2.5V11.5V12H3.5V11.5ZM2.5 11.5H2V12.5H2.5H3V11.5H2.5ZM2.5 12.5V12H1.5V12.5V13H2.5V12.5ZM1.5 12.5H1V13.5H1.5H2V12.5H1.5ZM1.5 13.5V13H0.5V13.5V14H1.5V13.5ZM0.5 13.5H1V11.5H0.5H0V13.5H0.5ZM0.5 11.5V12H1.5V11.5V11H0.5V11.5ZM1.5 11.5H2V10.5H1.5H1V11.5H1.5ZM1.5 10.5V11H2.5V10.5V10H1.5V10.5ZM2.5 10.5H3V9.5H2.5H2V10.5H2.5ZM2.5 9.5V10H3.5V9.5V9H2.5V9.5ZM3.5 9.5H4V8.5H3.5H3V9.5H3.5ZM3.5 8.5V9H4.5V8.5V8H3.5V8.5ZM4.5 8.5H5V7.5H4.5H4V8.5H4.5ZM4.5 7.5V8H5.5V7.5V7H4.5V7.5ZM5.5 7.5H6V6.5H5.5H5V7.5H5.5ZM5.5 6.5V6H4.5V6.5V7H5.5V6.5ZM4.5 6.5H5V5.5H4.5H4V6.5H4.5ZM4.5 5.5V5H3.5V5.5V6H4.5V5.5ZM3.5 5.5H4V4.5H3.5H3V5.5H3.5ZM3.5 4.5V4H2.5V4.5V5H3.5V4.5ZM2.5 4.5H3V3.5H2.5H2V4.5H2.5ZM2.5 3.5V3H1.5V3.5V4H2.5V3.5ZM1.5 3.5H2V2.5H1.5H1V3.5H1.5ZM1.5 2.5V2H0.5V2.5V3H1.5V2.5ZM0.5 2.5H1V0.5H0.5H0V2.5H0.5ZM0.5 0.5V1H2.5V0.5V0H0.5V0.5ZM2.5 0.5H2V1.5H2.5H3V0.5H2.5ZM2.5 1.5V2H3.5V1.5V1H2.5V1.5ZM3.5 1.5H3V2.5H3.5H4V1.5H3.5ZM3.5 2.5V3H4.5V2.5V2H3.5V2.5ZM4.5 2.5H4V3.5H4.5H5V2.5H4.5ZM4.5 3.5V4H5.5V3.5V3H4.5V3.5ZM5.5 3.5H5V4.5H5.5H6V3.5H5.5ZM5.5 4.5V5H6.5V4.5V4H5.5V4.5ZM6.5 4.5H6V5.5H6.5H7V4.5H6.5ZM6.5 5.5V6H7.5V5.5V5H6.5V5.5ZM7.5 5.5H8V4.5H7.5H7V5.5H7.5ZM7.5 4.5V5H8.5V4.5V4H7.5V4.5ZM8.5 4.5H9V3.5H8.5H8V4.5H8.5ZM8.5 3.5V4H9.5V3.5V3H8.5V3.5ZM9.5 3.5H10V2.5H9.5H9V3.5H9.5ZM9.5 2.5V3H10.5V2.5V2H9.5V2.5ZM10.5 2.5H11V1.5H10.5H10V2.5H10.5ZM10.5 1.5V2H11.5V1.5V1H10.5V1.5ZM11.5 1.5H12V0.5H11.5H11V1.5H11.5ZM11.5 0.5V1H13.5V0.5V0H11.5V0.5ZM13.5 0.5H13V1.5H13.5H14V0.5H13.5ZM13.5 1.5V1H12.5V1.5V2H13.5V1.5ZM12.5 1.5H12V2.5H12.5H13V1.5H12.5ZM12.5 2.5V2H11.5V2.5V3H12.5V2.5ZM11.5 2.5H11V3.5H11.5H12V2.5H11.5ZM11.5 3.5V3H10.5V3.5V4H11.5V3.5ZM10.5 3.5H10V4.5H10.5H11V3.5H10.5ZM10.5 4.5V4H9.5V4.5V5H10.5V4.5ZM9.5 4.5H9V5.5H9.5H10V4.5H9.5ZM9.5 5.5V5H8.5V5.5V6H9.5V5.5ZM8.5 5.5H8V7.5H8.5H9V5.5H8.5ZM8.5 7.5V8H9.5V7.5V7H8.5V7.5ZM9.5 7.5H9V8.5H9.5H10V7.5H9.5ZM9.5 8.5V9H10.5V8.5V8H9.5V8.5ZM10.5 8.5H10V9.5H10.5H11V8.5H10.5ZM10.5 9.5V10H11.5V9.5V9H10.5V9.5ZM11.5 9.5H11V10.5H11.5H12V9.5H11.5ZM11.5 10.5V11H12.5V10.5V10H11.5V10.5ZM12.5 10.5H12V11.5H12.5H13V10.5H12.5ZM12.5 11.5V12H13.5V11.5V11H12.5V11.5ZM13.5 11.5H13V12.5H13.5H14V11.5H13.5ZM13.5 12.5V12H12.5V12.5V13H13.5V12.5ZM12.5 12.5H12V13.5H12.5H13V12.5H12.5Z" fill="var(--stroke-0, black)" mask="url(#path-1-outside-1_0_341)"/>
</g>
</svg>
