<svg width="1440" height="48" viewBox="0 0 1440 48" fill="none" xmlns="http://www.w3.org/2000/svg">
<path fill-rule="evenodd" clip-rule="evenodd" d="M1417.29 0.878667C1418.46 -0.29288 1420.36 -0.292898 1421.53 0.878667L1440.62 19.9705C1441.79 21.142 1441.79 23.0411 1440.62 24.2127L1421.53 43.3044C1420.36 44.4759 1418.46 44.4758 1417.29 43.3044C1416.12 42.1329 1416.12 40.2338 1417.29 39.0623L1431.26 25.0916H1164.5V47.0916H1158.5V25.0916H948.5V47.0916H942.5V25.0916H732.5V47.0916H726.5V25.0916H516.5V47.0916H510.5V25.0916H300.5V47.0916H294.5V25.0916H84.5V47.0916H78.5V25.0916H-1.5V19.0916H1431.26L1417.29 5.12085C1416.12 3.94932 1416.12 2.05025 1417.29 0.878667Z" fill="url(#paint0_linear_2057_20884)"/>
<defs>
<linearGradient id="paint0_linear_2057_20884" x1="-1.5" y1="23.5458" x2="1441.5" y2="23.5458" gradientUnits="userSpaceOnUse">
<stop offset="0.139423"/>
<stop offset="1" stop-color="#F60000"/>
</linearGradient>
</defs>
</svg>
